<svg version="1.1" xmlns="http://www.w3.org/2000/svg" viewBox="0 0 512 512" width="512px" height="512px">
  <path d="M512,256 L511.999,270.18 L511.998,276.053 L511.995,280.56 L511.99,284.359 L511.985,287.706 L511.978,290.732 L511.97,293.514 L511.961,296.104 L511.951,298.536 L511.94,300.836 L511.927,303.024 L511.913,305.114 L511.898,307.119 L511.882,309.047 L511.864,310.908 L511.846,312.707 L511.826,314.451 L511.805,316.144 L511.783,317.79 L511.759,319.393 L511.734,320.957 L511.708,322.483 L511.681,323.975 L511.653,325.434 L511.623,326.863 L511.593,328.264 L511.561,329.637 L511.528,330.985 L511.493,332.309 L511.458,333.61 L511.421,334.889 L511.383,336.148 L511.344,337.386 L511.303,338.606 L511.262,339.807 L511.219,340.991 L511.175,342.159 L511.13,343.31 L511.083,344.446 L511.036,345.567 L510.987,346.674 L510.937,347.767 L510.885,348.847 L510.833,349.914 L510.779,350.969 L510.724,352.011 L510.668,353.042 L510.611,354.062 L510.552,355.071 L510.493,356.069 L510.432,357.056 L510.369,358.034 L510.306,359.002 L510.241,359.96 L510.176,360.91 L510.109,361.85 L510.04,362.781 L509.971,363.704 L509.9,364.619 L509.828,365.525 L509.755,366.423 L509.681,367.314 L509.605,368.197 L509.529,369.073 L509.451,369.941 L509.371,370.802 L509.291,371.657 L509.209,372.504 L509.127,373.345 L509.043,374.18 L508.957,375.007 L508.871,375.829 L508.783,376.645 L508.694,377.454 L508.604,378.258 L508.513,379.055 L508.42,379.847 L508.326,380.634 L508.231,381.415 L508.135,382.19 L508.037,382.96 L507.939,383.725 L507.839,384.485 L507.738,385.24 L507.635,385.989 L507.531,386.734 L507.427,387.474 L507.321,388.209 L507.213,388.94 L507.105,389.666 L506.995,390.387 L506.884,391.104 L506.772,391.816 L506.658,392.524 L506.544,393.228 L506.428,393.928 L506.311,394.623 L506.192,395.315 L506.073,396.002 L505.952,396.685 L505.83,397.364 L505.706,398.04 L505.582,398.711 L505.456,399.379 L505.329,400.043 L505.201,400.703 L505.071,401.359 L504.94,402.012 L504.808,402.661 L504.675,403.307 L504.541,403.949 L504.405,404.588 L504.268,405.223 L504.13,405.855 L503.99,406.484 L503.85,407.109 L503.708,407.731 L503.565,408.35 L503.42,408.965 L503.274,409.578 L503.127,410.187 L502.979,410.793 L502.83,411.396 L502.679,411.996 L502.527,412.593 L502.374,413.186 L502.219,413.777 L502.064,414.365 L501.907,414.95 L501.749,415.532 L501.589,416.112 L501.428,416.688 L501.266,417.262 L501.103,417.833 L500.938,418.401 L500.773,418.966 L500.606,419.529 L500.437,420.088 L500.268,420.646 L500.097,421.2 L499.925,421.752 L499.751,422.302 L499.577,422.848 L499.401,423.393 L499.223,423.934 L499.045,424.473 L498.865,425.01 L498.684,425.544 L498.502,426.076 L498.318,426.605 L498.133,427.132 L497.947,427.656 L497.76,428.178 L497.571,428.697 L497.381,429.214 L497.189,429.729 L496.997,430.242 L496.803,430.752 L496.608,431.26 L496.411,431.765 L496.214,432.269 L496.014,432.77 L495.814,433.268 L495.612,433.765 L495.41,434.259 L495.205,434.751 L495,435.241 L494.793,435.729 L494.585,436.215 L494.375,436.698 L494.164,437.18 L493.952,437.659 L493.739,438.136 L493.524,438.611 L493.308,439.084 L493.091,439.554 L492.872,440.023 L492.652,440.49 L492.431,440.955 L492.208,441.417 L491.984,441.878 L491.759,442.336 L491.533,442.793 L491.305,443.247 L491.076,443.7 L490.845,444.151 L490.613,444.599 L490.38,445.046 L490.145,445.491 L489.909,445.934 L489.672,446.375 L489.433,446.814 L489.194,447.251 L488.952,447.686 L488.71,448.119 L488.466,448.551 L488.22,448.98 L487.974,449.408 L487.726,449.834 L487.476,450.258 L487.225,450.68 L486.973,451.101 L486.72,451.519 L486.465,451.936 L486.209,452.351 L485.951,452.764 L485.692,453.175 L485.432,453.585 L485.17,453.993 L484.907,454.399 L484.643,454.803 L484.377,455.205 L484.11,455.606 L483.841,456.005 L483.571,456.402 L483.3,456.798 L483.027,457.192 L482.753,457.584 L482.477,457.974 L482.2,458.363 L481.921,458.75 L481.642,459.135 L481.36,459.519 L481.078,459.901 L480.794,460.281 L480.508,460.66 L480.221,461.037 L479.933,461.412 L479.643,461.786 L479.352,462.158 L479.059,462.528 L478.765,462.897 L478.47,463.264 L478.173,463.63 L477.875,463.993 L477.575,464.356 L477.274,464.716 L476.971,465.075 L476.667,465.433 L476.361,465.789 L476.054,466.143 L475.745,466.496 L475.435,466.847 L475.124,467.196 L474.811,467.544 L474.496,467.891 L474.18,468.235 L473.863,468.579 L473.544,468.92 L473.224,469.261 L472.902,469.599 L472.578,469.936 L472.253,470.272 L471.927,470.606 L471.599,470.939 L471.269,471.269 L470.939,471.599 L470.606,471.927 L470.272,472.253 L469.936,472.578 L469.599,472.902 L469.261,473.224 L468.92,473.544 L468.579,473.863 L468.235,474.18 L467.891,474.496 L467.544,474.811 L467.196,475.124 L466.847,475.435 L466.496,475.745 L466.143,476.054 L465.789,476.361 L465.433,476.667 L465.075,476.971 L464.716,477.274 L464.356,477.575 L463.993,477.875 L463.63,478.173 L463.264,478.47 L462.897,478.765 L462.528,479.059 L462.158,479.352 L461.786,479.643 L461.412,479.933 L461.037,480.221 L460.66,480.508 L460.281,480.794 L459.901,481.078 L459.519,481.36 L459.135,481.642 L458.75,481.921 L458.363,482.2 L457.974,482.477 L457.584,482.753 L457.192,483.027 L456.798,483.3 L456.402,483.571 L456.005,483.841 L455.606,484.11 L455.205,484.377 L454.803,484.643 L454.399,484.907 L453.993,485.17 L453.585,485.432 L453.175,485.692 L452.764,485.951 L452.351,486.209 L451.936,486.465 L451.519,486.72 L451.101,486.973 L450.68,487.225 L450.258,487.476 L449.834,487.726 L449.408,487.974 L448.98,488.22 L448.551,488.466 L448.119,488.71 L447.686,488.952 L447.251,489.194 L446.814,489.433 L446.375,489.672 L445.934,489.909 L445.491,490.145 L445.046,490.38 L444.599,490.613 L444.151,490.845 L443.7,491.076 L443.247,491.305 L442.793,491.533 L442.336,491.759 L441.878,491.984 L441.417,492.208 L440.955,492.431 L440.49,492.652 L440.023,492.872 L439.554,493.091 L439.084,493.308 L438.611,493.524 L438.136,493.739 L437.659,493.952 L437.18,494.164 L436.698,494.375 L436.215,494.585 L435.729,494.793 L435.241,495 L434.751,495.205 L434.259,495.41 L433.765,495.612 L433.268,495.814 L432.77,496.014 L432.269,496.214 L431.765,496.411 L431.26,496.608 L430.752,496.803 L430.242,496.997 L429.729,497.189 L429.214,497.381 L428.697,497.571 L428.178,497.76 L427.656,497.947 L427.132,498.133 L426.605,498.318 L426.076,498.502 L425.544,498.684 L425.01,498.865 L424.473,499.045 L423.934,499.223 L423.393,499.401 L422.848,499.577 L422.302,499.751 L421.752,499.925 L421.2,500.097 L420.646,500.268 L420.088,500.437 L419.529,500.606 L418.966,500.773 L418.401,500.938 L417.833,501.103 L417.262,501.266 L416.688,501.428 L416.112,501.589 L415.532,501.749 L414.95,501.907 L414.365,502.064 L413.777,502.219 L413.186,502.374 L412.593,502.527 L411.996,502.679 L411.396,502.83 L410.793,502.979 L410.187,503.127 L409.578,503.274 L408.965,503.42 L408.35,503.565 L407.731,503.708 L407.109,503.85 L406.484,503.99 L405.855,504.13 L405.223,504.268 L404.588,504.405 L403.949,504.541 L403.307,504.675 L402.661,504.808 L402.012,504.94 L401.359,505.071 L400.703,505.201 L400.043,505.329 L399.379,505.456 L398.711,505.582 L398.04,505.706 L397.364,505.83 L396.685,505.952 L396.002,506.073 L395.315,506.192 L394.623,506.311 L393.928,506.428 L393.228,506.544 L392.524,506.658 L391.816,506.772 L391.104,506.884 L390.387,506.995 L389.666,507.105 L388.94,507.213 L388.209,507.321 L387.474,507.427 L386.734,507.531 L385.989,507.635 L385.24,507.738 L384.485,507.839 L383.725,507.939 L382.96,508.037 L382.19,508.135 L381.415,508.231 L380.634,508.326 L379.847,508.42 L379.055,508.513 L378.258,508.604 L377.454,508.694 L376.645,508.783 L375.829,508.871 L375.007,508.957 L374.18,509.043 L373.345,509.127 L372.504,509.209 L371.657,509.291 L370.802,509.371 L369.941,509.451 L369.073,509.529 L368.197,509.605 L367.314,509.681 L366.423,509.755 L365.525,509.828 L364.619,509.9 L363.704,509.971 L362.781,510.04 L361.85,510.109 L360.91,510.176 L359.96,510.241 L359.002,510.306 L358.034,510.369 L357.056,510.432 L356.069,510.493 L355.071,510.552 L354.062,510.611 L353.042,510.668 L352.011,510.724 L350.969,510.779 L349.914,510.833 L348.847,510.885 L347.767,510.937 L346.674,510.987 L345.567,511.036 L344.446,511.083 L343.31,511.13 L342.159,511.175 L340.991,511.219 L339.807,511.262 L338.606,511.303 L337.386,511.344 L336.148,511.383 L334.889,511.421 L333.61,511.458 L332.309,511.493 L330.985,511.528 L329.637,511.561 L328.264,511.593 L326.863,511.623 L325.434,511.653 L323.975,511.681 L322.483,511.708 L320.957,511.734 L319.393,511.759 L317.79,511.783 L316.144,511.805 L314.451,511.826 L312.707,511.846 L310.908,511.864 L309.047,511.882 L307.119,511.898 L305.114,511.913 L303.024,511.927 L300.836,511.94 L298.536,511.951 L296.104,511.961 L293.514,511.97 L290.732,511.978 L287.706,511.985 L284.359,511.99 L280.56,511.995 L276.053,511.998 L270.18,511.999 L256,512 L241.82,511.999 L235.947,511.998 L231.44,511.995 L227.641,511.99 L224.294,511.985 L221.268,511.978 L218.486,511.97 L215.896,511.961 L213.464,511.951 L211.164,511.94 L208.976,511.927 L206.886,511.913 L204.881,511.898 L202.953,511.882 L201.092,511.864 L199.293,511.846 L197.549,511.826 L195.856,511.805 L194.21,511.783 L192.607,511.759 L191.043,511.734 L189.517,511.708 L188.025,511.681 L186.566,511.653 L185.137,511.623 L183.736,511.593 L182.363,511.561 L181.015,511.528 L179.691,511.493 L178.39,511.458 L177.111,511.421 L175.852,511.383 L174.614,511.344 L173.394,511.303 L172.193,511.262 L171.009,511.219 L169.841,511.175 L168.69,511.13 L167.554,511.083 L166.433,511.036 L165.326,510.987 L164.233,510.937 L163.153,510.885 L162.086,510.833 L161.031,510.779 L159.989,510.724 L158.958,510.668 L157.938,510.611 L156.929,510.552 L155.931,510.493 L154.944,510.432 L153.966,510.369 L152.998,510.306 L152.04,510.241 L151.09,510.176 L150.15,510.109 L149.219,510.04 L148.296,509.971 L147.381,509.9 L146.475,509.828 L145.577,509.755 L144.686,509.681 L143.803,509.605 L142.927,509.529 L142.059,509.451 L141.198,509.371 L140.343,509.291 L139.496,509.209 L138.655,509.127 L137.82,509.043 L136.993,508.957 L136.171,508.871 L135.355,508.783 L134.546,508.694 L133.742,508.604 L132.945,508.513 L132.153,508.42 L131.366,508.326 L130.585,508.231 L129.81,508.135 L129.04,508.037 L128.275,507.939 L127.515,507.839 L126.76,507.738 L126.011,507.635 L125.266,507.531 L124.526,507.427 L123.791,507.321 L123.06,507.213 L122.334,507.105 L121.613,506.995 L120.896,506.884 L120.184,506.772 L119.476,506.658 L118.772,506.544 L118.072,506.428 L117.377,506.311 L116.685,506.192 L115.998,506.073 L115.315,505.952 L114.636,505.83 L113.96,505.706 L113.289,505.582 L112.621,505.456 L111.957,505.329 L111.297,505.201 L110.641,505.071 L109.988,504.94 L109.339,504.808 L108.693,504.675 L108.051,504.541 L107.412,504.405 L106.777,504.268 L106.145,504.13 L105.516,503.99 L104.891,503.85 L104.269,503.708 L103.65,503.565 L103.035,503.42 L102.422,503.274 L101.813,503.127 L101.207,502.979 L100.604,502.83 L100.004,502.679 L99.407,502.527 L98.814,502.374 L98.223,502.219 L97.635,502.064 L97.05,501.907 L96.468,501.749 L95.888,501.589 L95.312,501.428 L94.738,501.266 L94.167,501.103 L93.599,500.938 L93.034,500.773 L92.471,500.606 L91.912,500.437 L91.354,500.268 L90.8,500.097 L90.248,499.925 L89.698,499.751 L89.152,499.577 L88.607,499.401 L88.066,499.223 L87.527,499.045 L86.99,498.865 L86.456,498.684 L85.924,498.502 L85.395,498.318 L84.868,498.133 L84.344,497.947 L83.822,497.76 L83.303,497.571 L82.786,497.381 L82.271,497.189 L81.758,496.997 L81.248,496.803 L80.74,496.608 L80.235,496.411 L79.731,496.214 L79.23,496.014 L78.732,495.814 L78.235,495.612 L77.741,495.41 L77.249,495.205 L76.759,495 L76.271,494.793 L75.785,494.585 L75.302,494.375 L74.82,494.164 L74.341,493.952 L73.864,493.739 L73.389,493.524 L72.916,493.308 L72.446,493.091 L71.977,492.872 L71.51,492.652 L71.045,492.431 L70.583,492.208 L70.122,491.984 L69.664,491.759 L69.207,491.533 L68.753,491.305 L68.3,491.076 L67.849,490.845 L67.401,490.613 L66.954,490.38 L66.509,490.145 L66.066,489.909 L65.625,489.672 L65.186,489.433 L64.749,489.194 L64.314,488.952 L63.881,488.71 L63.449,488.466 L63.02,488.22 L62.592,487.974 L62.166,487.726 L61.742,487.476 L61.32,487.225 L60.899,486.973 L60.481,486.72 L60.064,486.465 L59.649,486.209 L59.236,485.951 L58.825,485.692 L58.415,485.432 L58.007,485.17 L57.601,484.907 L57.197,484.643 L56.795,484.377 L56.394,484.11 L55.995,483.841 L55.598,483.571 L55.202,483.3 L54.808,483.027 L54.416,482.753 L54.026,482.477 L53.637,482.2 L53.25,481.921 L52.865,481.642 L52.481,481.36 L52.099,481.078 L51.719,480.794 L51.34,480.508 L50.963,480.221 L50.588,479.933 L50.214,479.643 L49.842,479.352 L49.472,479.059 L49.103,478.765 L48.736,478.47 L48.37,478.173 L48.007,477.875 L47.644,477.575 L47.284,477.274 L46.925,476.971 L46.567,476.667 L46.211,476.361 L45.857,476.054 L45.504,475.745 L45.153,475.435 L44.804,475.124 L44.456,474.811 L44.109,474.496 L43.765,474.18 L43.421,473.863 L43.08,473.544 L42.739,473.224 L42.401,472.902 L42.064,472.578 L41.728,472.253 L41.394,471.927 L41.061,471.599 L40.731,471.269 L40.401,470.939 L40.073,470.606 L39.747,470.272 L39.422,469.936 L39.098,469.599 L38.776,469.261 L38.456,468.92 L38.137,468.579 L37.82,468.235 L37.504,467.891 L37.189,467.544 L36.876,467.196 L36.565,466.847 L36.255,466.496 L35.946,466.143 L35.639,465.789 L35.333,465.433 L35.029,465.075 L34.726,464.716 L34.425,464.356 L34.125,463.993 L33.827,463.63 L33.53,463.264 L33.235,462.897 L32.941,462.528 L32.648,462.158 L32.357,461.786 L32.067,461.412 L31.779,461.037 L31.492,460.66 L31.206,460.281 L30.922,459.901 L30.64,459.519 L30.358,459.135 L30.079,458.75 L29.8,458.363 L29.523,457.974 L29.247,457.584 L28.973,457.192 L28.7,456.798 L28.429,456.402 L28.159,456.005 L27.89,455.606 L27.623,455.205 L27.357,454.803 L27.093,454.399 L26.83,453.993 L26.568,453.585 L26.308,453.175 L26.049,452.764 L25.791,452.351 L25.535,451.936 L25.28,451.519 L25.027,451.101 L24.775,450.68 L24.524,450.258 L24.274,449.834 L24.026,449.408 L23.78,448.98 L23.534,448.551 L23.29,448.119 L23.048,447.686 L22.806,447.251 L22.567,446.814 L22.328,446.375 L22.091,445.934 L21.855,445.491 L21.62,445.046 L21.387,444.599 L21.155,444.151 L20.924,443.7 L20.695,443.247 L20.467,442.793 L20.241,442.336 L20.016,441.878 L19.792,441.417 L19.569,440.955 L19.348,440.49 L19.128,440.023 L18.909,439.554 L18.692,439.084 L18.476,438.611 L18.261,438.136 L18.048,437.659 L17.836,437.18 L17.625,436.698 L17.415,436.215 L17.207,435.729 L17,435.241 L16.795,434.751 L16.59,434.259 L16.388,433.765 L16.186,433.268 L15.986,432.77 L15.786,432.269 L15.589,431.765 L15.392,431.26 L15.197,430.752 L15.003,430.242 L14.811,429.729 L14.619,429.214 L14.429,428.697 L14.24,428.178 L14.053,427.656 L13.867,427.132 L13.682,426.605 L13.498,426.076 L13.316,425.544 L13.135,425.01 L12.955,424.473 L12.777,423.934 L12.599,423.393 L12.423,422.848 L12.249,422.302 L12.075,421.752 L11.903,421.2 L11.732,420.646 L11.563,420.088 L11.394,419.529 L11.227,418.966 L11.062,418.401 L10.897,417.833 L10.734,417.262 L10.572,416.688 L10.411,416.112 L10.251,415.532 L10.093,414.95 L9.936,414.365 L9.781,413.777 L9.626,413.186 L9.473,412.593 L9.321,411.996 L9.17,411.396 L9.021,410.793 L8.873,410.187 L8.726,409.578 L8.58,408.965 L8.435,408.35 L8.292,407.731 L8.15,407.109 L8.01,406.484 L7.87,405.855 L7.732,405.223 L7.595,404.588 L7.459,403.949 L7.325,403.307 L7.192,402.661 L7.06,402.012 L6.929,401.359 L6.799,400.703 L6.671,400.043 L6.544,399.379 L6.418,398.711 L6.294,398.04 L6.17,397.364 L6.048,396.685 L5.927,396.002 L5.808,395.315 L5.689,394.623 L5.572,393.928 L5.456,393.228 L5.342,392.524 L5.228,391.816 L5.116,391.104 L5.005,390.387 L4.895,389.666 L4.787,388.94 L4.679,388.209 L4.573,387.474 L4.469,386.734 L4.365,385.989 L4.262,385.24 L4.161,384.485 L4.061,383.725 L3.963,382.96 L3.865,382.19 L3.769,381.415 L3.674,380.634 L3.58,379.847 L3.487,379.055 L3.396,378.258 L3.306,377.454 L3.217,376.645 L3.129,375.829 L3.043,375.007 L2.957,374.18 L2.873,373.345 L2.791,372.504 L2.709,371.657 L2.629,370.802 L2.549,369.941 L2.471,369.073 L2.395,368.197 L2.319,367.314 L2.245,366.423 L2.172,365.525 L2.1,364.619 L2.029,363.704 L1.96,362.781 L1.891,361.85 L1.824,360.91 L1.759,359.96 L1.694,359.002 L1.631,358.034 L1.568,357.056 L1.507,356.069 L1.448,355.071 L1.389,354.062 L1.332,353.042 L1.276,352.011 L1.221,350.969 L1.167,349.914 L1.115,348.847 L1.063,347.767 L1.013,346.674 L0.964,345.567 L0.917,344.446 L0.87,343.31 L0.825,342.159 L0.781,340.991 L0.738,339.807 L0.697,338.606 L0.656,337.386 L0.617,336.148 L0.579,334.889 L0.542,333.61 L0.507,332.309 L0.472,330.985 L0.439,329.637 L0.407,328.264 L0.377,326.863 L0.347,325.434 L0.319,323.975 L0.292,322.483 L0.266,320.957 L0.241,319.393 L0.217,317.79 L0.195,316.144 L0.174,314.451 L0.154,312.707 L0.136,310.908 L0.118,309.047 L0.102,307.119 L0.087,305.114 L0.073,303.024 L0.06,300.836 L0.049,298.536 L0.039,296.104 L0.03,293.514 L0.022,290.732 L0.015,287.706 L0.01,284.359 L0.005,280.56 L0.002,276.053 L0.001,270.18 L0,256 L0.001,241.82 L0.002,235.947 L0.005,231.44 L0.01,227.641 L0.015,224.294 L0.022,221.268 L0.03,218.486 L0.039,215.896 L0.049,213.464 L0.06,211.164 L0.073,208.976 L0.087,206.886 L0.102,204.881 L0.118,202.953 L0.136,201.092 L0.154,199.293 L0.174,197.549 L0.195,195.856 L0.217,194.21 L0.241,192.607 L0.266,191.043 L0.292,189.517 L0.319,188.025 L0.347,186.566 L0.377,185.137 L0.407,183.736 L0.439,182.363 L0.472,181.015 L0.507,179.691 L0.542,178.39 L0.579,177.111 L0.617,175.852 L0.656,174.614 L0.697,173.394 L0.738,172.193 L0.781,171.009 L0.825,169.841 L0.87,168.69 L0.917,167.554 L0.964,166.433 L1.013,165.326 L1.063,164.233 L1.115,163.153 L1.167,162.086 L1.221,161.031 L1.276,159.989 L1.332,158.958 L1.389,157.938 L1.448,156.929 L1.507,155.931 L1.568,154.944 L1.631,153.966 L1.694,152.998 L1.759,152.04 L1.824,151.09 L1.891,150.15 L1.96,149.219 L2.029,148.296 L2.1,147.381 L2.172,146.475 L2.245,145.577 L2.319,144.686 L2.395,143.803 L2.471,142.927 L2.549,142.059 L2.629,141.198 L2.709,140.343 L2.791,139.496 L2.873,138.655 L2.957,137.82 L3.043,136.993 L3.129,136.171 L3.217,135.355 L3.306,134.546 L3.396,133.742 L3.487,132.945 L3.58,132.153 L3.674,131.366 L3.769,130.585 L3.865,129.81 L3.963,129.04 L4.061,128.275 L4.161,127.515 L4.262,126.76 L4.365,126.011 L4.469,125.266 L4.573,124.526 L4.679,123.791 L4.787,123.06 L4.895,122.334 L5.005,121.613 L5.116,120.896 L5.228,120.184 L5.342,119.476 L5.456,118.772 L5.572,118.072 L5.689,117.377 L5.808,116.685 L5.927,115.998 L6.048,115.315 L6.17,114.636 L6.294,113.96 L6.418,113.289 L6.544,112.621 L6.671,111.957 L6.799,111.297 L6.929,110.641 L7.06,109.988 L7.192,109.339 L7.325,108.693 L7.459,108.051 L7.595,107.412 L7.732,106.777 L7.87,106.145 L8.01,105.516 L8.15,104.891 L8.292,104.269 L8.435,103.65 L8.58,103.035 L8.726,102.422 L8.873,101.813 L9.021,101.207 L9.17,100.604 L9.321,100.004 L9.473,99.407 L9.626,98.814 L9.781,98.223 L9.936,97.635 L10.093,97.05 L10.251,96.468 L10.411,95.888 L10.572,95.312 L10.734,94.738 L10.897,94.167 L11.062,93.599 L11.227,93.034 L11.394,92.471 L11.563,91.912 L11.732,91.354 L11.903,90.8 L12.075,90.248 L12.249,89.698 L12.423,89.152 L12.599,88.607 L12.777,88.066 L12.955,87.527 L13.135,86.99 L13.316,86.456 L13.498,85.924 L13.682,85.395 L13.867,84.868 L14.053,84.344 L14.24,83.822 L14.429,83.303 L14.619,82.786 L14.811,82.271 L15.003,81.758 L15.197,81.248 L15.392,80.74 L15.589,80.235 L15.786,79.731 L15.986,79.23 L16.186,78.732 L16.388,78.235 L16.59,77.741 L16.795,77.249 L17,76.759 L17.207,76.271 L17.415,75.785 L17.625,75.302 L17.836,74.82 L18.048,74.341 L18.261,73.864 L18.476,73.389 L18.692,72.916 L18.909,72.446 L19.128,71.977 L19.348,71.51 L19.569,71.045 L19.792,70.583 L20.016,70.122 L20.241,69.664 L20.467,69.207 L20.695,68.753 L20.924,68.3 L21.155,67.849 L21.387,67.401 L21.62,66.954 L21.855,66.509 L22.091,66.066 L22.328,65.625 L22.567,65.186 L22.806,64.749 L23.048,64.314 L23.29,63.881 L23.534,63.449 L23.78,63.02 L24.026,62.592 L24.274,62.166 L24.524,61.742 L24.775,61.32 L25.027,60.899 L25.28,60.481 L25.535,60.064 L25.791,59.649 L26.049,59.236 L26.308,58.825 L26.568,58.415 L26.83,58.007 L27.093,57.601 L27.357,57.197 L27.623,56.795 L27.89,56.394 L28.159,55.995 L28.429,55.598 L28.7,55.202 L28.973,54.808 L29.247,54.416 L29.523,54.026 L29.8,53.637 L30.079,53.25 L30.358,52.865 L30.64,52.481 L30.922,52.099 L31.206,51.719 L31.492,51.34 L31.779,50.963 L32.067,50.588 L32.357,50.214 L32.648,49.842 L32.941,49.472 L33.235,49.103 L33.53,48.736 L33.827,48.37 L34.125,48.007 L34.425,47.644 L34.726,47.284 L35.029,46.925 L35.333,46.567 L35.639,46.211 L35.946,45.857 L36.255,45.504 L36.565,45.153 L36.876,44.804 L37.189,44.456 L37.504,44.109 L37.82,43.765 L38.137,43.421 L38.456,43.08 L38.776,42.739 L39.098,42.401 L39.422,42.064 L39.747,41.728 L40.073,41.394 L40.401,41.061 L40.731,40.731 L41.061,40.401 L41.394,40.073 L41.728,39.747 L42.064,39.422 L42.401,39.098 L42.739,38.776 L43.08,38.456 L43.421,38.137 L43.765,37.82 L44.109,37.504 L44.456,37.189 L44.804,36.876 L45.153,36.565 L45.504,36.255 L45.857,35.946 L46.211,35.639 L46.567,35.333 L46.925,35.029 L47.284,34.726 L47.644,34.425 L48.007,34.125 L48.37,33.827 L48.736,33.53 L49.103,33.235 L49.472,32.941 L49.842,32.648 L50.214,32.357 L50.588,32.067 L50.963,31.779 L51.34,31.492 L51.719,31.206 L52.099,30.922 L52.481,30.64 L52.865,30.358 L53.25,30.079 L53.637,29.8 L54.026,29.523 L54.416,29.247 L54.808,28.973 L55.202,28.7 L55.598,28.429 L55.995,28.159 L56.394,27.89 L56.795,27.623 L57.197,27.357 L57.601,27.093 L58.007,26.83 L58.415,26.568 L58.825,26.308 L59.236,26.049 L59.649,25.791 L60.064,25.535 L60.481,25.28 L60.899,25.027 L61.32,24.775 L61.742,24.524 L62.166,24.274 L62.592,24.026 L63.02,23.78 L63.449,23.534 L63.881,23.29 L64.314,23.048 L64.749,22.806 L65.186,22.567 L65.625,22.328 L66.066,22.091 L66.509,21.855 L66.954,21.62 L67.401,21.387 L67.849,21.155 L68.3,20.924 L68.753,20.695 L69.207,20.467 L69.664,20.241 L70.122,20.016 L70.583,19.792 L71.045,19.569 L71.51,19.348 L71.977,19.128 L72.446,18.909 L72.916,18.692 L73.389,18.476 L73.864,18.261 L74.341,18.048 L74.82,17.836 L75.302,17.625 L75.785,17.415 L76.271,17.207 L76.759,17 L77.249,16.795 L77.741,16.59 L78.235,16.388 L78.732,16.186 L79.23,15.986 L79.731,15.786 L80.235,15.589 L80.74,15.392 L81.248,15.197 L81.758,15.003 L82.271,14.811 L82.786,14.619 L83.303,14.429 L83.822,14.24 L84.344,14.053 L84.868,13.867 L85.395,13.682 L85.924,13.498 L86.456,13.316 L86.99,13.135 L87.527,12.955 L88.066,12.777 L88.607,12.599 L89.152,12.423 L89.698,12.249 L90.248,12.075 L90.8,11.903 L91.354,11.732 L91.912,11.563 L92.471,11.394 L93.034,11.227 L93.599,11.062 L94.167,10.897 L94.738,10.734 L95.312,10.572 L95.888,10.411 L96.468,10.251 L97.05,10.093 L97.635,9.936 L98.223,9.781 L98.814,9.626 L99.407,9.473 L100.004,9.321 L100.604,9.17 L101.207,9.021 L101.813,8.873 L102.422,8.726 L103.035,8.58 L103.65,8.435 L104.269,8.292 L104.891,8.15 L105.516,8.01 L106.145,7.87 L106.777,7.732 L107.412,7.595 L108.051,7.459 L108.693,7.325 L109.339,7.192 L109.988,7.06 L110.641,6.929 L111.297,6.799 L111.957,6.671 L112.621,6.544 L113.289,6.418 L113.96,6.294 L114.636,6.17 L115.315,6.048 L115.998,5.927 L116.685,5.808 L117.377,5.689 L118.072,5.572 L118.772,5.456 L119.476,5.342 L120.184,5.228 L120.896,5.116 L121.613,5.005 L122.334,4.895 L123.06,4.787 L123.791,4.679 L124.526,4.573 L125.266,4.469 L126.011,4.365 L126.76,4.262 L127.515,4.161 L128.275,4.061 L129.04,3.963 L129.81,3.865 L130.585,3.769 L131.366,3.674 L132.153,3.58 L132.945,3.487 L133.742,3.396 L134.546,3.306 L135.355,3.217 L136.171,3.129 L136.993,3.043 L137.82,2.957 L138.655,2.873 L139.496,2.791 L140.343,2.709 L141.198,2.629 L142.059,2.549 L142.927,2.471 L143.803,2.395 L144.686,2.319 L145.577,2.245 L146.475,2.172 L147.381,2.1 L148.296,2.029 L149.219,1.96 L150.15,1.891 L151.09,1.824 L152.04,1.759 L152.998,1.694 L153.966,1.631 L154.944,1.568 L155.931,1.507 L156.929,1.448 L157.938,1.389 L158.958,1.332 L159.989,1.276 L161.031,1.221 L162.086,1.167 L163.153,1.115 L164.233,1.063 L165.326,1.013 L166.433,0.964 L167.554,0.917 L168.69,0.87 L169.841,0.825 L171.009,0.781 L172.193,0.738 L173.394,0.697 L174.614,0.656 L175.852,0.617 L177.111,0.579 L178.39,0.542 L179.691,0.507 L181.015,0.472 L182.363,0.439 L183.736,0.407 L185.137,0.377 L186.566,0.347 L188.025,0.319 L189.517,0.292 L191.043,0.266 L192.607,0.241 L194.21,0.217 L195.856,0.195 L197.549,0.174 L199.293,0.154 L201.092,0.136 L202.953,0.118 L204.881,0.102 L206.886,0.087 L208.976,0.073 L211.164,0.06 L213.464,0.049 L215.896,0.039 L218.486,0.03 L221.268,0.022 L224.294,0.015 L227.641,0.01 L231.44,0.005 L235.947,0.002 L241.82,0.001 L256,0 L270.18,0.001 L276.053,0.002 L280.56,0.005 L284.359,0.01 L287.706,0.015 L290.732,0.022 L293.514,0.03 L296.104,0.039 L298.536,0.049 L300.836,0.06 L303.024,0.073 L305.114,0.087 L307.119,0.102 L309.047,0.118 L310.908,0.136 L312.707,0.154 L314.451,0.174 L316.144,0.195 L317.79,0.217 L319.393,0.241 L320.957,0.266 L322.483,0.292 L323.975,0.319 L325.434,0.347 L326.863,0.377 L328.264,0.407 L329.637,0.439 L330.985,0.472 L332.309,0.507 L333.61,0.542 L334.889,0.579 L336.148,0.617 L337.386,0.656 L338.606,0.697 L339.807,0.738 L340.991,0.781 L342.159,0.825 L343.31,0.87 L344.446,0.917 L345.567,0.964 L346.674,1.013 L347.767,1.063 L348.847,1.115 L349.914,1.167 L350.969,1.221 L352.011,1.276 L353.042,1.332 L354.062,1.389 L355.071,1.448 L356.069,1.507 L357.056,1.568 L358.034,1.631 L359.002,1.694 L359.96,1.759 L360.91,1.824 L361.85,1.891 L362.781,1.96 L363.704,2.029 L364.619,2.1 L365.525,2.172 L366.423,2.245 L367.314,2.319 L368.197,2.395 L369.073,2.471 L369.941,2.549 L370.802,2.629 L371.657,2.709 L372.504,2.791 L373.345,2.873 L374.18,2.957 L375.007,3.043 L375.829,3.129 L376.645,3.217 L377.454,3.306 L378.258,3.396 L379.055,3.487 L379.847,3.58 L380.634,3.674 L381.415,3.769 L382.19,3.865 L382.96,3.963 L383.725,4.061 L384.485,4.161 L385.24,4.262 L385.989,4.365 L386.734,4.469 L387.474,4.573 L388.209,4.679 L388.94,4.787 L389.666,4.895 L390.387,5.005 L391.104,5.116 L391.816,5.228 L392.524,5.342 L393.228,5.456 L393.928,5.572 L394.623,5.689 L395.315,5.808 L396.002,5.927 L396.685,6.048 L397.364,6.17 L398.04,6.294 L398.711,6.418 L399.379,6.544 L400.043,6.671 L400.703,6.799 L401.359,6.929 L402.012,7.06 L402.661,7.192 L403.307,7.325 L403.949,7.459 L404.588,7.595 L405.223,7.732 L405.855,7.87 L406.484,8.01 L407.109,8.15 L407.731,8.292 L408.35,8.435 L408.965,8.58 L409.578,8.726 L410.187,8.873 L410.793,9.021 L411.396,9.17 L411.996,9.321 L412.593,9.473 L413.186,9.626 L413.777,9.781 L414.365,9.936 L414.95,10.093 L415.532,10.251 L416.112,10.411 L416.688,10.572 L417.262,10.734 L417.833,10.897 L418.401,11.062 L418.966,11.227 L419.529,11.394 L420.088,11.563 L420.646,11.732 L421.2,11.903 L421.752,12.075 L422.302,12.249 L422.848,12.423 L423.393,12.599 L423.934,12.777 L424.473,12.955 L425.01,13.135 L425.544,13.316 L426.076,13.498 L426.605,13.682 L427.132,13.867 L427.656,14.053 L428.178,14.24 L428.697,14.429 L429.214,14.619 L429.729,14.811 L430.242,15.003 L430.752,15.197 L431.26,15.392 L431.765,15.589 L432.269,15.786 L432.77,15.986 L433.268,16.186 L433.765,16.388 L434.259,16.59 L434.751,16.795 L435.241,17 L435.729,17.207 L436.215,17.415 L436.698,17.625 L437.18,17.836 L437.659,18.048 L438.136,18.261 L438.611,18.476 L439.084,18.692 L439.554,18.909 L440.023,19.128 L440.49,19.348 L440.955,19.569 L441.417,19.792 L441.878,20.016 L442.336,20.241 L442.793,20.467 L443.247,20.695 L443.7,20.924 L444.151,21.155 L444.599,21.387 L445.046,21.62 L445.491,21.855 L445.934,22.091 L446.375,22.328 L446.814,22.567 L447.251,22.806 L447.686,23.048 L448.119,23.29 L448.551,23.534 L448.98,23.78 L449.408,24.026 L449.834,24.274 L450.258,24.524 L450.68,24.775 L451.101,25.027 L451.519,25.28 L451.936,25.535 L452.351,25.791 L452.764,26.049 L453.175,26.308 L453.585,26.568 L453.993,26.83 L454.399,27.093 L454.803,27.357 L455.205,27.623 L455.606,27.89 L456.005,28.159 L456.402,28.429 L456.798,28.7 L457.192,28.973 L457.584,29.247 L457.974,29.523 L458.363,29.8 L458.75,30.079 L459.135,30.358 L459.519,30.64 L459.901,30.922 L460.281,31.206 L460.66,31.492 L461.037,31.779 L461.412,32.067 L461.786,32.357 L462.158,32.648 L462.528,32.941 L462.897,33.235 L463.264,33.53 L463.63,33.827 L463.993,34.125 L464.356,34.425 L464.716,34.726 L465.075,35.029 L465.433,35.333 L465.789,35.639 L466.143,35.946 L466.496,36.255 L466.847,36.565 L467.196,36.876 L467.544,37.189 L467.891,37.504 L468.235,37.82 L468.579,38.137 L468.92,38.456 L469.261,38.776 L469.599,39.098 L469.936,39.422 L470.272,39.747 L470.606,40.073 L470.939,40.401 L471.269,40.731 L471.599,41.061 L471.927,41.394 L472.253,41.728 L472.578,42.064 L472.902,42.401 L473.224,42.739 L473.544,43.08 L473.863,43.421 L474.18,43.765 L474.496,44.109 L474.811,44.456 L475.124,44.804 L475.435,45.153 L475.745,45.504 L476.054,45.857 L476.361,46.211 L476.667,46.567 L476.971,46.925 L477.274,47.284 L477.575,47.644 L477.875,48.007 L478.173,48.37 L478.47,48.736 L478.765,49.103 L479.059,49.472 L479.352,49.842 L479.643,50.214 L479.933,50.588 L480.221,50.963 L480.508,51.34 L480.794,51.719 L481.078,52.099 L481.36,52.481 L481.642,52.865 L481.921,53.25 L482.2,53.637 L482.477,54.026 L482.753,54.416 L483.027,54.808 L483.3,55.202 L483.571,55.598 L483.841,55.995 L484.11,56.394 L484.377,56.795 L484.643,57.197 L484.907,57.601 L485.17,58.007 L485.432,58.415 L485.692,58.825 L485.951,59.236 L486.209,59.649 L486.465,60.064 L486.72,60.481 L486.973,60.899 L487.225,61.32 L487.476,61.742 L487.726,62.166 L487.974,62.592 L488.22,63.02 L488.466,63.449 L488.71,63.881 L488.952,64.314 L489.194,64.749 L489.433,65.186 L489.672,65.625 L489.909,66.066 L490.145,66.509 L490.38,66.954 L490.613,67.401 L490.845,67.849 L491.076,68.3 L491.305,68.753 L491.533,69.207 L491.759,69.664 L491.984,70.122 L492.208,70.583 L492.431,71.045 L492.652,71.51 L492.872,71.977 L493.091,72.446 L493.308,72.916 L493.524,73.389 L493.739,73.864 L493.952,74.341 L494.164,74.82 L494.375,75.302 L494.585,75.785 L494.793,76.271 L495,76.759 L495.205,77.249 L495.41,77.741 L495.612,78.235 L495.814,78.732 L496.014,79.23 L496.214,79.731 L496.411,80.235 L496.608,80.74 L496.803,81.248 L496.997,81.758 L497.189,82.271 L497.381,82.786 L497.571,83.303 L497.76,83.822 L497.947,84.344 L498.133,84.868 L498.318,85.395 L498.502,85.924 L498.684,86.456 L498.865,86.99 L499.045,87.527 L499.223,88.066 L499.401,88.607 L499.577,89.152 L499.751,89.698 L499.925,90.248 L500.097,90.8 L500.268,91.354 L500.437,91.912 L500.606,92.471 L500.773,93.034 L500.938,93.599 L501.103,94.167 L501.266,94.738 L501.428,95.312 L501.589,95.888 L501.749,96.468 L501.907,97.05 L502.064,97.635 L502.219,98.223 L502.374,98.814 L502.527,99.407 L502.679,100.004 L502.83,100.604 L502.979,101.207 L503.127,101.813 L503.274,102.422 L503.42,103.035 L503.565,103.65 L503.708,104.269 L503.85,104.891 L503.99,105.516 L504.13,106.145 L504.268,106.777 L504.405,107.412 L504.541,108.051 L504.675,108.693 L504.808,109.339 L504.94,109.988 L505.071,110.641 L505.201,111.297 L505.329,111.957 L505.456,112.621 L505.582,113.289 L505.706,113.96 L505.83,114.636 L505.952,115.315 L506.073,115.998 L506.192,116.685 L506.311,117.377 L506.428,118.072 L506.544,118.772 L506.658,119.476 L506.772,120.184 L506.884,120.896 L506.995,121.613 L507.105,122.334 L507.213,123.06 L507.321,123.791 L507.427,124.526 L507.531,125.266 L507.635,126.011 L507.738,126.76 L507.839,127.515 L507.939,128.275 L508.037,129.04 L508.135,129.81 L508.231,130.585 L508.326,131.366 L508.42,132.153 L508.513,132.945 L508.604,133.742 L508.694,134.546 L508.783,135.355 L508.871,136.171 L508.957,136.993 L509.043,137.82 L509.127,138.655 L509.209,139.496 L509.291,140.343 L509.371,141.198 L509.451,142.059 L509.529,142.927 L509.605,143.803 L509.681,144.686 L509.755,145.577 L509.828,146.475 L509.9,147.381 L509.971,148.296 L510.04,149.219 L510.109,150.15 L510.176,151.09 L510.241,152.04 L510.306,152.998 L510.369,153.966 L510.432,154.944 L510.493,155.931 L510.552,156.929 L510.611,157.938 L510.668,158.958 L510.724,159.989 L510.779,161.031 L510.833,162.086 L510.885,163.153 L510.937,164.233 L510.987,165.326 L511.036,166.433 L511.083,167.554 L511.13,168.69 L511.175,169.841 L511.219,171.009 L511.262,172.193 L511.303,173.394 L511.344,174.614 L511.383,175.852 L511.421,177.111 L511.458,178.39 L511.493,179.691 L511.528,181.015 L511.561,182.363 L511.593,183.736 L511.623,185.137 L511.653,186.566 L511.681,188.025 L511.708,189.517 L511.734,191.043 L511.759,192.607 L511.783,194.21 L511.805,195.856 L511.826,197.549 L511.846,199.293 L511.864,201.092 L511.882,202.953 L511.898,204.881 L511.913,206.886 L511.927,208.976 L511.94,211.164 L511.951,213.464 L511.961,215.896 L511.97,218.486 L511.978,221.268 L511.985,224.294 L511.99,227.641 L511.995,231.44 L511.998,235.947 L511.999,241.82 L512,256 Z" width="512px" height="512px" />
</svg>
